<svg preserveAspectRatio="none" width="100%" height="100%" overflow="visible" style="display: block;" viewBox="0 0 202.172 208.39" fill="none" xmlns="http://www.w3.org/2000/svg">
<path id="Ellipse 7" d="M112.021 204.22C112.435 206.951 114.987 208.84 117.695 208.297C134.174 204.989 149.646 197.773 162.796 187.228C177.248 175.638 188.383 160.436 195.073 143.161C201.764 125.885 203.773 107.149 200.897 88.8485C198.02 70.5475 190.362 53.3309 178.695 38.9404C167.028 24.55 151.768 13.4964 134.457 6.89789C117.146 0.299414 98.4001 -1.60979 80.1146 1.36345C61.8292 4.33669 44.6535 12.0869 30.3253 23.8299C17.2881 34.5148 7.02918 48.1605 0.384945 63.5994C-0.70666 66.1359 0.614224 69.0237 3.19973 69.9935L6.63874 71.2835C9.22425 72.2534 12.0937 70.9369 13.2033 68.4082C18.9898 55.2213 27.8181 43.5631 38.9923 34.405C51.4579 24.1886 66.4008 17.4459 82.3091 14.8592C98.2174 12.2725 114.527 13.9335 129.587 19.6742C144.647 25.4148 157.924 35.0315 168.074 47.5512C178.224 60.0708 184.887 75.0493 187.389 90.9711C189.891 106.893 188.144 123.193 182.323 138.223C176.503 153.252 166.816 166.478 154.242 176.561C142.971 185.6 129.739 191.826 115.641 194.761C112.937 195.323 111.056 197.859 111.47 200.589L112.021 204.22Z" fill="var(--fill-0, #D4D3D3)"/>
</svg>
