<svg width="24" height="24" viewBox="0 0 24 24" fill="none" xmlns="http://www.w3.org/2000/svg">
<path d="M19.24 5.5825H18.84L15.46 2.2025C15.19 1.9325 14.75 1.9325 14.47 2.2025C14.2 2.4725 14.2 2.9125 14.47 3.1925L16.86 5.5825H7.14L9.53 3.1925C9.8 2.9225 9.8 2.4825 9.53 2.2025C9.26 1.9325 8.82 1.9325 8.54 2.2025L5.17 5.5825H4.77C3.87 5.5825 2 5.5825 2 8.1425C2 9.1125 2.2 9.7525 2.62 10.1725C2.86 10.4225 3.15 10.5525 3.46 10.6225C3.75 10.6925 4.06 10.7025 4.36 10.7025H19.64C19.95 10.7025 20.24 10.6825 20.52 10.6225C21.36 10.4225 22 9.8225 22 8.1425C22 5.5825 20.13 5.5825 19.24 5.5825Z" fill="#0041A3"/>
<path d="M19.09 12.0025H4.91C4.29 12.0025 3.82 12.5525 3.92 13.1625L4.76 18.3025C5.04 20.0225 5.79 22.0025 9.12 22.0025H14.73C18.1 22.0025 18.7 20.3125 19.06 18.4225L20.07 13.1925C20.19 12.5725 19.72 12.0025 19.09 12.0025ZM14.88 16.0525L11.63 19.0525C11.49 19.1825 11.31 19.2525 11.12 19.2525C10.93 19.2525 10.74 19.1825 10.59 19.0325L9.09 17.5325C8.8 17.2425 8.8 16.7625 9.09 16.4725C9.39 16.1825 9.86 16.1825 10.16 16.4725L11.15 17.4625L13.87 14.9525C14.17 14.6725 14.65 14.6925 14.93 14.9925C15.21 15.3025 15.19 15.7725 14.88 16.0525Z" fill="#0041A3"/>
</svg>
