<svg preserveAspectRatio="none" width="100%" height="100%" overflow="visible" style="display: block;" viewBox="0 0 16 16" fill="none" xmlns="http://www.w3.org/2000/svg">
<g id="Checkbox/Active/Default">
<path id="Plate" d="M0 4C0 1.79086 1.79086 0 4 0H12C14.2091 0 16 1.79086 16 4V12C16 14.2091 14.2091 16 12 16H4C1.79086 16 0 14.2091 0 12V4Z" fill="var(--fill-0, #1677FF)"/>
<path id="check" d="M12.4688 3.84961C12.6699 3.84961 12.789 4.0837 12.6602 4.24414L12.6592 4.24316L6.9375 11.4961H6.93652C6.7256 11.7609 6.32265 11.7619 6.1123 11.4961L2.90234 7.42969C2.77666 7.27029 2.89024 7.0353 3.09375 7.03516H3.91309L4.03027 7.04883C4.06878 7.05769 4.10681 7.07051 4.14258 7.08789C4.21376 7.12255 4.2762 7.17315 4.3252 7.23535L6.52344 10.0215L11.2383 4.0498C11.3373 3.92341 11.4895 3.84973 11.6494 3.84961H12.4688Z" fill="var(--fill-0, white)" stroke="var(--stroke-0, white)" stroke-width="0.3"/>
</g>
</svg>
